<svg xmlns="http://www.w3.org/2000/svg" width="1280" height="820" viewBox="0 0 1280 820" fill="none">
  <rect width="1280" height="820" rx="36" fill="#F1EDE4"/>
  <rect x="48" y="48" width="1184" height="724" rx="28" fill="#FBF8F1" stroke="#DDD4C5"/>
  <rect x="86" y="86" width="1108" height="112" rx="24" fill="#F7F3EA" stroke="#DDD4C5"/>
  <rect x="86" y="236" width="520" height="486" rx="24" fill="#F7F3EA" stroke="#DDD4C5"/>
  <rect x="638" y="236" width="556" height="228" rx="24" fill="#F7F3EA" stroke="#DDD4C5"/>
  <rect x="638" y="494" width="556" height="228" rx="24" fill="#F7F3EA" stroke="#DDD4C5"/>
  <rect x="120" y="126" width="244" height="18" rx="9" fill="#272A26"/>
  <rect x="120" y="290" width="206" height="16" rx="8" fill="#272A26"/>
  <rect x="120" y="334" width="418" height="12" rx="6" fill="#8C8B85"/>
  <rect x="120" y="378" width="418" height="12" rx="6" fill="#8C8B85"/>
  <rect x="120" y="422" width="382" height="12" rx="6" fill="#8C8B85"/>
  <rect x="676" y="286" width="232" height="16" rx="8" fill="#272A26"/>
  <rect x="676" y="330" width="476" height="12" rx="6" fill="#8C8B85"/>
  <rect x="676" y="548" width="254" height="16" rx="8" fill="#272A26"/>
  <rect x="676" y="592" width="476" height="12" rx="6" fill="#8C8B85"/>
  <rect x="86" y="654" width="236" height="44" rx="18" fill="#4E8B76"/>
  <text x="676" y="664" fill="#272A26" font-family="Arial, sans-serif" font-size="40" font-weight="700">Translate</text>
</svg>
